<?xml version="1.0" encoding="UTF-8"?><svg xmlns="http://www.w3.org/2000/svg" xmlns:xlink="http://www.w3.org/1999/xlink" viewBox="0 0 1920 1920"><defs><style>.cls-1{fill:url(#linear-gradient-2);}.cls-2{fill:#fff;}.cls-3{fill:url(#linear-gradient-3);}.cls-4{fill:url(#linear-gradient);}</style><linearGradient id="linear-gradient" x1="497.1" y1="607.97" x2="1217.77" y2="1328.64" gradientTransform="matrix(1, 0, 0, 1, 0, 0)" gradientUnits="userSpaceOnUse"><stop offset="0" stop-color="#ed1c24"/><stop offset=".51" stop-color="#ed1c24"/><stop offset="1" stop-color="#f15a24"/></linearGradient><linearGradient id="linear-gradient-2" x1="305.41" y1="799.66" x2="1026.07" y2="1520.32" xlink:href="#linear-gradient"/><linearGradient id="linear-gradient-3" x1="550.5" y1="554.56" x2="1271.18" y2="1275.23" xlink:href="#linear-gradient"/></defs><g id="Layer_3"><g><path d="M960.5,1611.5c-87.34,0-172.08-17.11-251.84-50.84-77.04-32.59-146.24-79.24-205.66-138.66-59.42-59.42-106.07-128.61-138.66-205.66-33.74-79.77-50.84-164.5-50.84-251.84s17.11-172.08,50.84-251.84c32.59-77.04,79.24-146.24,138.66-205.66s128.61-106.07,205.66-138.66c79.76-33.74,164.5-50.84,251.84-50.84s172.08,17.11,251.84,50.84c77.04,32.59,146.24,79.24,205.66,138.66,59.42,59.42,106.07,128.61,138.66,205.66,33.74,79.76,50.84,164.5,50.84,251.84s-17.11,172.08-50.84,251.84c-32.59,77.04-79.24,146.24-138.66,205.66-59.42,59.42-128.61,106.07-205.66,138.66-79.77,33.74-164.5,50.84-251.84,50.84Z"/><path class="cls-2" d="M960.5,318c87.28,0,171.94,17.09,251.65,50.8,38.31,16.2,75.26,36.26,109.82,59.61,34.23,23.13,66.43,49.69,95.68,78.94,29.26,29.26,55.82,61.45,78.94,95.68,23.35,34.56,43.4,71.51,59.61,109.82,33.71,79.7,50.8,164.37,50.8,251.65s-17.09,171.94-50.8,251.65c-16.2,38.31-36.26,75.26-59.61,109.82-23.13,34.23-49.69,66.43-78.94,95.68-29.26,29.26-61.45,55.82-95.68,78.94-34.56,23.35-71.51,43.4-109.82,59.61-79.7,33.71-164.37,50.8-251.65,50.8s-171.94-17.09-251.65-50.8c-38.31-16.2-75.26-36.26-109.82-59.61-34.23-23.13-66.43-49.69-95.68-78.94-29.26-29.26-55.82-61.45-78.94-95.68-23.35-34.56-43.4-71.51-59.61-109.82-33.71-79.7-50.8-164.37-50.8-251.65s17.09-171.94,50.8-251.65c16.2-38.31,36.26-75.26,59.61-109.82,23.13-34.23,49.69-66.43,78.94-95.68,29.26-29.26,61.45-55.82,95.68-78.94,34.56-23.35,71.51-43.4,109.82-59.61,79.7-33.71,164.37-50.8,251.65-50.8m0-1c-357.6,0-647.5,289.9-647.5,647.5s289.9,647.5,647.5,647.5,647.5-289.9,647.5-647.5S1318.1,317,960.5,317h0Z"/></g></g><g id="Layer_2"><path class="cls-4" d="M629.85,882.58c14.41,3.41,67.67,6.76,97.64,4.26,37.86-31.72,64.13-68.48,73.43-116.91-27.71,38.11-125.36,91.33-171.06,112.65Z"/><path class="cls-1" d="M540.51,1063.33c0,4.78-.34,9.63-1.19,14.84,19.7-10.57,39.82-20.04,47.41-41.78-13.73,8.44-31.46,16.11-46.38,19.78,.09,2.39,.17,4.77,.17,7.16Z"/><path class="cls-3" d="M960.46,344c-342.7,0-620.51,277.81-620.51,620.51s277.81,620.51,620.51,620.51,620.51-277.81,620.51-620.51S1303.16,344,960.46,344Zm592.58,609.25c-25.84-11.51-53.63-21.57-82.11-28.91v-.09c-30.95-8.02-62.5-12.87-92.94-12.87-23.88,0-47.07,2.98-68.64,9.72-8.95-34.19-20.98-67.1-35.81-98.4,7.42-.6,14.75-.85,22.08-.85,61.65,0,119.12,19.95,169.93,52.78,31.97,20.64,61.31,46.3,87.4,75.29v.09c.09,1.02,.09,2.13,.09,3.24Zm-340.99-24.74c-35.36-75.78-82.18-123.49-106.52-144.95,16.13-11.72,44.7-27.86,78.67-27.58,63.05,85.58,100.33,191.22,100.33,305.55,0,74.33-15.78,144.98-44.09,208.83,11.33-49.05,16.79-96.85,16.16-142.99-.96-70.66-15.96-137.56-44.56-198.87Zm-367.7,395.42h0c11.67-9.2,22.98-18.95,33.84-29.18,10.85-10.23,21.25-20.94,31.1-32.04,11.81-13.33,22.82-27.24,32.87-41.59,60.64,4.79,131.66,24.53,153.61,32.33l.08,.04c-25.55,43.08-66.53,85.59-105.86,115.52-45.4-24.68-102.33-38.02-145.64-45.06Zm119.53,65.4c-89.45,49.14-196.24,62.55-280.03,18.35,1.54-.94,3.03-1.84,4.53-2.7,2.55-.68,5.1-1.39,7.65-2.14,2.55-.74,5.11-1.52,7.66-2.33,2.56-.81,5.11-1.65,7.67-2.52,5.11-1.74,10.22-3.62,15.33-5.61,10.21-3.98,20.39-8.45,30.5-13.37,5.05-2.46,10.09-5.03,15.1-7.71,5.01-2.68,9.99-5.47,14.95-8.36,3.72-2.17,7.41-4.4,11.09-6.68,3.68-2.28,7.33-4.62,10.97-7.02,37.35,4.46,102.6,15.28,154.59,40.08Zm-3.56-196.5c4.96-8.46,9.57-17.05,13.8-25.72,1.41-2.89,2.78-5.8,4.1-8.71,2.91-6.41,5.62-12.87,8.1-19.37,7.44-19.49,12.88-39.33,15.99-59.28,49.11,5.84,103.98,19.96,128.89,33.97l12.02,6.78c-7.08,36.37-26.48,86.83-37.42,104.73-22.66-8.05-86.08-25.7-145.49-32.4Zm44.99-142.9c.34-6.79,.41-13.29,.23-19.52-.12-4.15-.34-8.18-.66-12.08-.16-1.95-.35-3.88-.56-5.77-.26-2.37-.56-4.69-.9-6.96-.67-4.55-1.48-8.92-2.42-13.12-.47-2.1-.97-4.15-1.5-6.17-.85-3.22-1.77-6.33-2.77-9.34-1.49-4.51-3.13-8.78-4.9-12.82v-.07c28.43-21.35,63.19-31.46,98.14-31.46,12.36,0,24.72,1.27,36.93,3.78,13.71,39.22,21.2,81.32,21.2,125.15,0,6.22-1.95,19.82-2.21,26.07-29.97-16.82-88.92-31.61-140.58-37.68Zm545.48-138.3c-22.58-22.28-46.59-41.73-71.69-57.93-6.56-4.24-13.18-8.17-19.83-11.93-.37-2.37-.72-4.31-.95-4.37-4.74-21.22-13.53-57.62-19.6-75.06,3.03-.11,6.11-.39,9.1-.39,18.67,0,36.7,2.13,53.62,6.33l22.37,7.2c14.11,34.34,23.25,93.19,26.98,136.17Zm-39.19-166.5c-.21,.05-.46-.02-.78-.19-88.77-23.5-185.86,8.83-251.43,49.9-23.7-43.4-53.04-83.39-86.97-118.86,33.93-8.48,155.63-9.97,227.75,13.3,88.7,29.21,106.23,53.22,110.66,55.66,.26,.07,.52,.12,.78,.19Zm-18.05-44.16c-1.39-.44-2.83-.97-4.24-1.44-17.77-9.8-43.6-21.51-81.5-33.99-7.95-2.57-16.29-4.78-24.8-6.74-15.09-20.92-44.33-56.19-61.63-75.12,13.46-18.51,22.79-40.92,26.46-68.62,52.59,45.45,110.01,113.74,145.71,185.91Zm-325.58-294.04c45.01,18.12,97.54,46.3,135.51,73.23-.07,.21-.21,.59-.19,.56l-.94,1.32-.77,1.43c-2.41,4.51-5.15,8.62-8.06,12.52-.72,.97-1.48,1.88-2.23,2.81-2.57,3.19-5.27,6.21-8.17,9-.51,.5-1,1.02-1.52,1.51-7.47,6.89-15.92,12.62-25.26,17.39h0c-27.86-21.04-69.13-44.26-102.03-60.13,6.88-17.08,11.54-36.72,13.66-59.64Zm155.62,88.3c.41-.6,.79-1.27,1.12-1.99,0,.97-.11,1.8-.11,2.73-4.12,116.49-117.09,135.37-228.01,167.29-37.08,10.68-73.3,22.77-103.68,40.87h-.07c-19.78,11.84-37.76,26.59-51.24,45.17,112.3-53.79,223.32-29.07,224.56-28.84-1.24,.52-87.31,24.95-149.68,87.31,23.14,11.57,74.83,60.06,102.12,96.89-9.53-1.3-19.11-2.01-28.63-2.01-41.76,0-80.55,12.07-112.53,34.88-11.75-14.43-31.98-32.88-60.71-42.48,37.42,24.95,49.89,137.21-74.84,137.21-2.06,3.86-24.27,39.18-24.27,43.64,0,10.71,5.39,22.59,12.89,31.69-21.54,8.32-52.22,5.58-73.08-4.94-34.39,27.34-46.56,75.1-42.03,118.03-26.86-6.18-57.09,1.72-80.98,15.13-4.76-32.74,7.9-78.81,7.9-78.81,9.89,4.94,17.75,5.92,23.71,5.32-5.77-10.75-11.24-25.32-11.24-42.74l29.78,19.85c.67-.52,.6-.49,1.24-.97-3.41-9.03-6.07-19.44-6.07-31.35l13.6,9.06c.41-.9,.82-1.76,1.24-2.62-1.35-5.92-2.36-12.14-2.36-18.92l8.76,5.84c43.75-83.72,128.44-143.05,128.44-143.05-1.99-.19-3.75-.15-5.66-.3,.19-.15,.41-.37,.6-.52-1.09,.11-2.21,.26-3.33,.41-92.75-5.92-127.73,47.61-138.29,70.38,6.52,21.76,21.95,29.82,21.95,29.82-20,0-32.7-7.12-40.34-13.75-.49,.22-1.01,.41-1.46,.64,3.71,15.99,11.09,25.02,11.09,25.02-11.35-4.98-20.15-10.94-27.19-17.12-3.78,2.06-7.23,4.16-10.56,6.29,1.95,21.99,12.14,34.95,12.77,35.73-10.49-4.57-18.77-10-25.55-15.69,1.35,32.89,19.97,49.89,19.97,49.89-23.3-6.48-38.02-17.79-47.27-28.58-9.51,19.78-6.29,36.37-4.5,42.4-.3,.71-.6,1.42-.86,2.1-43.49-8.84-86.6-23.6-108.37-35.92,.79-4.01,1.31-8.09,1.31-12.21,0-25.85-14.31-53.56-30.27-75.03,37.46-27.91,103.08-90.65,106.34-125.71-50.33-10.75,15.96-94.33,86.54-171.98,30.08-33.1,47.45-51.19,42.46-92.32,4.42,4.76,8.77,9.36,12.89,13.9,1.76,1.95,15.38,17.76,17.07,19.74,127.36-247.22,372.75-111.14,425.12-268.12-6.7,109.75-74.88,134.59-169.42,191.86-20.98,12.51-41.8,26.07-61.06,41.95,118.03-90.01,341.76-6.93,410.2-135.07Zm-56.73,958.99l-.47,17.19c-67.02,39.29-148.86,69.36-229.12,79.75-40.37,5.2-80.49,6.15-116.9,3.58-186.39-12.46-353.23-112.14-453.78-263.81-7.52-11.91-86.69-120.85-97.37-289.05-26.94-401.39,358-711.62,749.39-609.17-8.58,22.38-23.35,36.36-45.66,46.36-155.21-38.41-336.34-12.51-469.59,88.99h-.09c-105.66,80.15-179.83,197.8-204.64,330.66-.09,0-.09,.09-.09,.09v.09c-41.17,217.85,55.32,443.54,250.08,562.67h.09c27.18,16.77,60.15,33,95.23,46.07,31.81,11.85,66.25,15.36,99.65,9.35,197.13-35.47,347.15-208.25,347.15-415.41,0-68.08-16.22-132.44-44.98-189.45,14.03,19.65,28.22,42.96,40.72,69.99,58.68,126.88,50,265.18,3.92,397.14-21.12,60.49-73.08,107.82-125.52,144.63,79.14-20.21,141.21-67.71,179.24-129.72,4.88,8.57,9.27,17.41,12.54,26.75,6.86,19.46,10.34,41.14,10.34,64.43,0,2.93-.09,5.94-.16,8.87Zm24.93,.67c.09-3.15,.17-6.39,.17-9.55,0-24.81-3.5-49.28-11.77-72.73-5.2-14.84-12.28-29.25-21.66-43.14,13.13-23.62,24.39-48.35,33.94-73.92,12.62,14.41,26.77,38.88,37.43,69.32,9.21,26.09,15.77,56.45,16.54,88.42-17.39,14.92-35.64,28.82-54.66,41.61Zm78.2-63.36c-2.43-25.15-7.99-50.69-16.54-74.92-1.61-4.6-3.35-9.11-5.14-13.56l25.83-32.85c.83,.41,1.76,.69,2.58,1.12,17.51,8.85,39.08,30.21,51.66,56.27-16.54,20.07-41.1,47.4-58.39,63.94Zm17.98-142.47c-21.57-11.17-47.58-17.22-77.42-17.22-3.24,0-6.57,.09-9.98,.26,11.26-35.13,19.18-71.71,23.19-109.48,24.05,10.4,63.69,29.5,91.15,78.96,13.98,25.15,24.81,58.24,28.82,101.98-12.88-23.62-31.63-42.29-55.76-54.49Zm105.47-25.49c-10.49,23.47-16.74,33.3-28.43,51.29-5.36-32.27-14.73-61-28.29-85.39-2.96-5.32-6.07-10.24-9.26-14.97l9.35-23.31c31.88,15.09,47.47,28.01,63.85,41.66l4.45,3.71c-2.12,5.02-7.73,18.22-11.68,27.01Zm-48-95.92c-33.07-15.35-89.99-33.11-119.37-31.38,2.97-44.16,.25-94.6-9.63-144.01,63.52,13.13,112.89,50.65,147.68,100.27,27.18,38.54,41.37,76.5,52.52,121.16-17.81-14.84-35.37-29.34-71.2-46.04Zm80.04-10.62c-10.81-29.54-23.88-54.63-40.94-78.82-7.1-10.13-14.81-19.41-22.79-28.29l2.41-61.53,.56,.14c25.74,6.62,52.03,15.89,78.18,27.53l3.31,1.48c-1.73,19.93-5.25,81.77-20.73,139.49Z"/></g></svg>