<?xml version="1.0" encoding="UTF-8"?><svg xmlns="http://www.w3.org/2000/svg" xmlns:xlink="http://www.w3.org/1999/xlink" viewBox="0 0 1873 1873"><defs><style>.cls-1{fill:url(#linear-gradient-2);}.cls-2{fill:#fff;}.cls-3{fill:url(#linear-gradient-3);}.cls-4{fill:url(#linear-gradient);}</style><linearGradient id="linear-gradient" x1="266.26" y1="420.83" x2="1308.59" y2="1463.16" gradientTransform="matrix(1, 0, 0, 1, 0, 0)" gradientUnits="userSpaceOnUse"><stop offset="0" stop-color="#ed1c24"/><stop offset=".51" stop-color="#ed1c24"/><stop offset="1" stop-color="#f15a24"/></linearGradient><linearGradient id="linear-gradient-2" x1="-10.98" y1="698.08" x2="1031.34" y2="1740.4" xlink:href="#linear-gradient"/><linearGradient id="linear-gradient-3" x1="343.51" y1="343.59" x2="1385.84" y2="1385.92" xlink:href="#linear-gradient"/></defs><g id="Layer_3"><g><path d="M936.5,1872.5c-126.36,0-248.94-24.75-364.33-73.56-111.46-47.14-211.56-114.63-297.52-200.59-85.96-85.96-153.45-186.06-200.59-297.52C25.25,1185.44,.5,1062.86,.5,936.5s24.75-248.94,73.56-364.33c47.14-111.46,114.63-211.56,200.59-297.52,85.96-85.96,186.06-153.45,297.52-200.59C687.56,25.25,810.14,.5,936.5,.5s248.94,24.75,364.33,73.56c111.46,47.14,211.56,114.63,297.52,200.59,85.96,85.96,153.45,186.06,200.59,297.52,48.81,115.39,73.56,237.97,73.56,364.33s-24.75,248.94-73.56,364.33c-47.14,111.46-114.63,211.56-200.59,297.52-85.96,85.96-186.06,153.45-297.52,200.59-115.39,48.81-237.97,73.56-364.33,73.56Z"/><path class="cls-2" d="M936.5,1c63.47,0,126.91,6.39,188.54,19.01,60.06,12.29,119.15,30.63,175.6,54.51,55.43,23.45,108.9,52.47,158.91,86.25,49.54,33.47,96.12,71.9,138.45,114.23,42.33,42.33,80.77,88.92,114.23,138.45,33.79,50.01,62.81,103.48,86.25,158.91,23.88,56.46,42.22,115.54,54.51,175.6,12.61,61.63,19.01,125.06,19.01,188.54s-6.39,126.91-19.01,188.54c-12.29,60.06-30.63,119.15-54.51,175.6-23.45,55.43-52.47,108.9-86.25,158.91-33.47,49.54-71.9,96.12-114.23,138.45-42.33,42.33-88.92,80.77-138.45,114.23-50.01,33.79-103.48,62.81-158.91,86.25-56.46,23.88-115.54,42.22-175.6,54.51-61.63,12.61-125.06,19.01-188.54,19.01s-126.91-6.39-188.54-19.01c-60.06-12.29-119.14-30.63-175.6-54.51-55.43-23.45-108.9-52.47-158.91-86.25-49.54-33.47-96.12-71.9-138.45-114.23-42.33-42.33-80.77-88.92-114.23-138.45-33.79-50.01-62.81-103.48-86.25-158.91-23.88-56.46-42.22-115.54-54.51-175.6-12.61-61.63-19.01-125.06-19.01-188.54s6.39-126.91,19.01-188.54c12.29-60.06,30.63-119.14,54.51-175.6,23.45-55.43,52.47-108.9,86.25-158.91,33.47-49.54,71.9-96.12,114.23-138.45,42.33-42.33,88.92-80.77,138.45-114.23,50.01-33.79,103.48-62.81,158.91-86.25,56.46-23.88,115.54-42.22,175.6-54.51C809.59,7.39,873.03,1,936.5,1m0-1C419.29,0,0,419.29,0,936.5s419.29,936.5,936.5,936.5,936.5-419.29,936.5-936.5S1453.71,0,936.5,0h0Z"/></g></g><g id="Layer_2"><path class="cls-4" d="M458.27,818.01c20.84,4.93,97.88,9.78,141.22,6.17,54.76-45.88,92.76-99.05,106.2-169.1-40.08,55.13-181.31,132.1-247.41,162.93Z"/><path class="cls-1" d="M329.06,1079.44c0,6.91-.49,13.94-1.73,21.46,28.49-15.29,57.59-28.98,68.57-60.43-19.85,12.21-45.51,23.31-67.09,28.61,.12,3.45,.25,6.9,.25,10.36Z"/><path class="cls-3" d="M936.44,39.05C440.79,39.05,38.98,440.86,38.98,936.52s401.81,897.47,897.47,897.47,897.47-401.81,897.47-897.47S1432.1,39.05,936.44,39.05Zm857.07,881.18c-37.37-16.65-77.57-31.2-118.76-41.81v-.12c-44.77-11.59-90.4-18.62-134.42-18.62-34.53,0-68.07,4.32-99.27,14.06-12.95-49.45-30.34-97.05-51.8-142.31,10.73-.86,21.34-1.23,31.94-1.23,89.16,0,172.28,28.86,245.78,76.34,46.25,29.85,88.67,66.97,126.41,108.89v.12c.12,1.48,.12,3.08,.12,4.69Zm-493.19-35.78c-51.15-109.6-118.86-178.61-154.06-209.64,23.33-16.95,64.65-40.29,113.79-39.89,91.19,123.78,145.11,276.57,145.11,441.93,0,107.51-22.82,209.68-63.76,302.03,16.39-70.95,24.28-140.08,23.37-206.81-1.39-102.19-23.08-198.96-64.45-287.63Zm-531.81,571.9h0c16.88-13.31,33.24-27.41,48.94-42.21,15.7-14.8,30.74-30.28,44.98-46.35,17.08-19.28,33.01-39.39,47.54-60.16,87.71,6.93,190.43,35.49,222.18,46.75l.11,.05c-36.95,62.3-96.22,123.79-153.1,167.08-65.66-35.7-148.01-54.99-210.64-65.17Zm172.88,94.59c-129.37,71.08-283.83,90.48-405.02,26.55,2.22-1.35,4.39-2.65,6.56-3.9,3.69-.98,7.38-2.01,11.07-3.09,3.69-1.08,7.39-2.2,11.08-3.37,3.7-1.17,7.39-2.39,11.09-3.65,7.39-2.52,14.78-5.23,22.17-8.11,14.77-5.76,29.49-12.22,44.11-19.34,7.31-3.56,14.59-7.28,21.84-11.15,7.25-3.88,14.45-7.91,21.62-12.09,5.37-3.14,10.72-6.36,16.04-9.66,5.32-3.3,10.61-6.69,15.87-10.15,54.01,6.45,148.39,22.1,223.59,57.97Zm-5.15-284.21c7.17-12.24,13.84-24.65,19.96-37.21,2.04-4.18,4.02-8.38,5.93-12.6,4.21-9.27,8.12-18.61,11.71-28.01,10.76-28.19,18.63-56.89,23.13-85.75,71.03,8.45,150.39,28.88,186.42,49.14l17.39,9.81c-10.24,52.6-38.3,125.58-54.12,151.48-32.78-11.65-124.5-37.17-210.42-46.86Zm65.07-206.68c.49-9.82,.59-19.23,.34-28.23-.17-6-.49-11.82-.96-17.47-.23-2.83-.5-5.61-.81-8.35-.38-3.42-.81-6.78-1.3-10.07-.97-6.58-2.15-12.9-3.51-18.98-.68-3.03-1.4-6.01-2.17-8.92-1.23-4.66-2.57-9.16-4-13.5-2.16-6.52-4.53-12.7-7.09-18.55v-.11c41.12-30.88,91.4-45.51,141.94-45.51,17.88,0,35.76,1.84,53.42,5.47,19.83,56.72,30.66,117.62,30.66,181,0,8.99-2.82,28.66-3.2,37.71-43.34-24.32-128.61-45.73-203.32-54.5Zm788.94-200.03c-32.66-32.23-67.38-60.36-103.69-83.79-9.49-6.13-19.07-11.81-28.68-17.26-.54-3.43-1.04-6.23-1.38-6.33-6.85-30.7-19.57-83.34-28.35-108.56,4.38-.16,8.84-.56,13.17-.56,27.01,0,53.08,3.08,77.55,9.15l32.36,10.41c20.4,49.67,33.63,134.78,39.03,196.94Zm-56.68-240.81c-.3,.08-.67-.03-1.13-.28-128.4-33.99-268.82,12.77-363.66,72.18-34.28-62.77-76.71-120.61-125.79-171.91,49.07-12.27,225.09-14.42,329.4,19.24,128.3,42.25,153.64,76.97,160.05,80.5,.38,.1,.76,.18,1.13,.28Zm-26.11-63.88c-2-.63-4.1-1.4-6.13-2.08-25.7-14.18-63.07-31.11-117.87-49.16-11.5-3.71-23.57-6.91-35.87-9.75-21.83-30.26-64.11-81.27-89.13-108.65,19.46-26.77,32.97-59.18,38.27-99.25,76.06,65.73,159.11,164.51,210.74,268.89Zm-470.9-425.28c65.1,26.21,141.07,66.96,195.99,105.92-.1,.3-.31,.86-.27,.81l-1.36,1.91-1.11,2.07c-3.48,6.53-7.45,12.46-11.65,18.1-1.04,1.4-2.15,2.72-3.23,4.07-3.71,4.61-7.63,8.98-11.82,13.01-.74,.72-1.45,1.48-2.21,2.18-10.8,9.96-23.02,18.25-36.53,25.15h0c-40.29-30.43-99.99-64.02-147.57-86.97,9.95-24.7,16.69-53.11,19.76-86.26Zm225.08,127.71c.6-.87,1.14-1.84,1.62-2.87,0,1.41-.16,2.6-.16,3.95-5.96,168.49-169.35,195.79-329.77,241.95-53.63,15.44-106.02,32.94-149.96,59.11h-.11c-28.61,17.12-54.61,38.46-74.11,65.34,162.42-77.8,323-42.04,324.79-41.72-1.79,.76-126.29,36.08-216.49,126.29,33.46,16.73,108.24,86.87,147.7,140.14-13.78-1.88-27.64-2.91-41.41-2.91-60.4,0-116.5,17.45-162.75,50.45-17-20.87-46.25-47.56-87.81-61.44,54.12,36.08,72.16,198.45-108.24,198.45-2.98,5.58-35.11,56.67-35.11,63.12,0,15.49,7.8,32.67,18.64,45.83-31.15,12.03-75.52,8.07-105.7-7.15-49.73,39.55-67.34,108.62-60.79,170.71-38.84-8.94-82.56,2.49-117.13,21.89-6.88-47.35,11.43-113.99,11.43-113.99,14.3,7.15,25.68,8.56,34.29,7.69-8.34-15.55-16.25-36.62-16.25-61.82l43.07,28.71c.97-.76,.87-.7,1.79-1.41-4.93-13.06-8.78-28.12-8.78-45.35l19.67,13.11c.6-1.3,1.19-2.55,1.79-3.79-1.95-8.56-3.41-17.55-3.41-27.36l12.68,8.45c63.28-121.08,185.77-206.9,185.77-206.9-2.87-.27-5.42-.22-8.18-.43,.27-.22,.6-.54,.87-.76-1.57,.16-3.2,.38-4.82,.6-134.14-8.56-184.74,68.86-200.02,101.8,9.43,31.48,31.75,43.13,31.75,43.13-28.93,0-47.3-10.29-58.35-19.88-.7,.33-1.46,.6-2.11,.92,5.36,23.13,16.04,36.19,16.04,36.19-16.42-7.21-29.15-15.82-39.33-24.76-5.47,2.98-10.46,6.01-15.28,9.1,2.82,31.8,17.55,50.55,18.47,51.68-15.17-6.61-27.14-14.47-36.95-22.7,1.95,47.57,28.88,72.16,28.88,72.16-33.7-9.37-54.99-25.73-68.37-41.34-13.76,28.61-9.1,52.61-6.5,61.33-.43,1.03-.87,2.06-1.25,3.03-62.9-12.79-125.25-34.13-156.73-51.96,1.14-5.8,1.9-11.7,1.9-17.66,0-37.38-20.7-77.47-43.77-108.51,54.18-40.36,149.09-131.11,153.81-181.82-72.79-15.55,23.08-136.43,125.17-248.74,43.5-47.88,68.62-74.04,61.42-133.53,6.39,6.88,12.68,13.54,18.64,20.1,2.55,2.82,22.25,25.68,24.69,28.55,184.2-357.56,539.12-160.75,614.87-387.79-9.7,158.74-108.3,194.66-245.04,277.49-30.34,18.09-60.46,37.71-88.31,60.68,170.71-130.19,494.3-10.02,593.29-195.36Zm-82.05,1387.01l-.68,24.86c-96.94,56.83-215.29,100.32-331.39,115.35-58.38,7.52-116.42,8.89-169.07,5.18-269.58-18.02-510.89-162.2-656.32-381.56-10.88-17.23-125.39-174.79-140.84-418.06C42.34,409.97,599.08-38.72,1165.17,109.46c-12.4,32.37-33.77,52.59-66.04,67.06-224.49-55.55-486.46-18.1-679.18,128.7h-.12c-152.82,115.92-260.09,286.09-295.97,478.24-.12,0-.12,.12-.12,.12v.12c-59.54,315.08,80.01,641.5,361.71,813.81h.12c39.3,24.25,87,47.73,137.73,66.63,46,17.13,95.82,22.21,144.13,13.52,285.12-51.3,502.1-301.19,502.1-600.82,0-98.47-23.45-191.56-65.06-274,20.29,28.42,40.82,62.14,58.9,101.23,84.87,183.52,72.32,383.54,5.68,574.4-30.55,87.49-105.7,155.94-181.54,209.19,114.47-29.23,204.23-97.93,259.25-187.62,7.05,12.39,13.4,25.18,18.14,38.69,9.92,28.14,14.96,59.5,14.96,93.19,0,4.24-.12,8.6-.23,12.83Zm36.05,.98c.12-4.56,.25-9.25,.25-13.81,0-35.89-5.06-71.28-17.02-105.19-7.52-21.46-17.76-42.3-31.32-62.4,18.99-34.16,35.27-69.92,49.08-106.92,18.25,20.84,38.72,56.24,54.14,100.26,13.32,37.74,22.81,81.64,23.92,127.89-25.16,21.58-51.55,41.68-79.05,60.18Zm113.1-91.64c-3.52-36.37-11.55-73.31-23.92-108.36-2.33-6.65-4.84-13.17-7.44-19.61l37.36-47.51c1.21,.59,2.54,1,3.73,1.62,25.33,12.79,56.52,43.7,74.72,81.38-23.93,29.03-59.45,68.56-84.45,92.48Zm26.01-206.06c-31.2-16.16-68.81-24.91-111.98-24.91-4.69,0-9.5,.12-14.43,.37,16.28-50.81,27.75-103.71,33.54-158.35,34.78,15.05,92.12,42.67,131.83,114.2,20.23,36.38,35.89,84.23,41.68,147.49-18.62-34.16-45.75-61.17-80.65-78.8Zm152.55-36.87c-15.18,33.94-24.21,48.16-41.12,74.18-7.75-46.67-21.3-88.23-40.92-123.51-4.27-7.7-8.79-14.81-13.39-21.65l13.52-33.71c46.1,21.83,68.66,40.52,92.35,60.26l6.44,5.36c-3.07,7.26-11.17,26.36-16.89,39.06Zm-69.43-138.74c-47.83-22.2-130.15-47.89-172.65-45.38,4.29-63.87,.36-136.82-13.94-208.29,91.88,18.99,163.28,73.25,213.59,145.03,39.31,55.74,59.83,110.65,75.97,175.24-25.76-21.46-51.15-42.43-102.97-66.59Zm115.76-15.36c-15.63-42.72-34.54-79.01-59.21-114-10.27-14.65-21.42-28.07-32.96-40.92l3.48-88.99,.81,.21c37.22,9.57,75.26,22.98,113.08,39.82l4.79,2.13c-2.5,28.83-7.59,118.27-29.98,201.75Z"/></g></svg>